<svg xmlns="http://www.w3.org/2000/svg" viewBox="0 0 512 512" style="enable-background:new 0 0 512 512" xml:space="preserve"><path style="fill:#22acdd" d="M0 400.016h512V426.8H0z"/><path style="fill:#f60" d="M176 308.256c-11.024 5.408-33.056 10.768-61.312 10.768C49.248 319.024 0 278.656 0 204.32 0 133.328 49.232 85.2 121.232 85.2c28.912 0 47.184 6.064 55.104 10.096l-7.248 23.888c-11.36-5.36-27.536-9.408-46.816-9.408-54.432 0-90.592 33.968-90.592 93.536 0 55.504 32.72 91.168 89.216 91.168 18.224 0 36.832-3.68 48.896-9.408L176 308.256zm33.328-28.24c13.456 8.064 33.056 14.784 53.728 14.784 30.672 0 48.56-15.808 48.56-38.688 0-21.168-12.4-33.28-43.744-45.072-37.888-13.136-61.312-32.304-61.312-64.272 0-35.328 29.968-61.568 75.088-61.568 23.76 0 40.976 5.376 51.328 11.12l-8.288 23.888c-7.584-4.032-23.056-10.768-44.08-10.768-31.68 0-43.744 18.496-43.744 33.968 0 21.2 14.128 31.632 46.176 43.712 39.264 14.816 59.216 33.312 59.216 66.64 0 34.96-26.48 65.248-81.248 65.248-22.384 0-46.848-6.384-59.248-14.448l7.568-24.544zm169.744 0c13.456 8.064 33.056 14.784 53.728 14.784 30.672 0 48.56-15.808 48.56-38.688 0-21.168-12.4-33.28-43.744-45.072-37.888-13.136-61.312-32.304-61.312-64.272 0-35.328 29.968-61.568 75.088-61.568 23.76 0 40.976 5.376 51.328 11.12l-8.288 23.888c-7.584-4.032-23.056-10.768-44.08-10.768-31.68 0-43.744 18.496-43.744 33.968 0 21.2 14.128 31.632 46.176 43.712C492.048 201.952 512 220.448 512 253.776c0 34.96-26.48 65.248-81.248 65.248-22.384 0-46.848-6.384-59.248-14.448l7.568-24.56z"/></svg>