<svg xmlns="http://www.w3.org/2000/svg" viewBox="0 0 512.001 512.001" style="enable-background:new 0 0 512.001 512.001" xml:space="preserve"><path style="fill:#fff" d="M323.601 210.328v-11.335c0-14.448 11.699-26.158 26.137-26.158h79.652V48.588H10.449V355.45h313.152V210.328z"/><path style="fill:#10bafc" d="M475.414 172.835H349.738c-14.437 0-26.137 11.71-26.137 26.158v238.261c0 14.449 11.699 26.158 26.137 26.158h125.676c14.431 0 26.137-11.709 26.137-26.158V198.993c0-14.448-11.706-26.158-26.137-26.158z"/><path style="fill:#fff" d="M323.605 210.328h177.946v214.026H323.605z"/><path style="fill:#3f5968" d="M10.449 305.894h313.156v49.56H10.449z"/><path style="fill:#92e03f" d="M353.228 240.975H471.49v76.151H353.228zM63.6 93.676h118.262v76.151H63.6z"/><path d="M475.414 162.386h-35.577V48.588c0-5.77-4.679-10.449-10.449-10.449H10.449C4.679 38.139 0 42.818 0 48.588V355.45c0 5.77 4.679 10.449 10.449 10.449h160.049l-5.617 37.223h-24.475c-5.77 0-10.449 4.679-10.449 10.449s4.679 10.449 10.449 10.449h159.026c5.77 0 10.449-4.679 10.449-10.449s-4.679-10.449-10.449-10.449h-24.474L269.34 365.9h43.813v71.355c0 20.185 16.412 36.607 36.586 36.607h125.676c20.174 0 36.586-16.422 36.586-36.607V198.993c-.001-20.185-16.413-36.607-36.587-36.607zm-289.4 240.737 5.618-37.223h56.573l5.618 37.223h-67.809zm127.138-204.13v99.045a10.4 10.4 0 0 0-6.873-2.592h-32.631c-5.77 0-10.449 4.679-10.449 10.449s4.679 10.449 10.449 10.449h32.631a10.4 10.4 0 0 0 6.873-2.592v31.251H20.898v-28.658h225.245c5.77 0 10.449-4.679 10.449-10.449s-4.679-10.449-10.449-10.449H20.898V59.037h398.041v103.349h-69.202c-20.173 0-36.585 16.422-36.585 36.607zm36.586 253.971c-8.65 0-15.688-7.047-15.688-15.709v-2.45h71.574c-2.729 2.095-4.5 5.38-4.5 9.079 0 3.699 1.77 6.984 4.5 9.079h-55.886v.001zm65.415 0H410c-3.958-1.125-6.869-4.766-6.869-9.079s2.911-7.954 6.869-9.079h5.153c3.959 1.125 6.87 4.766 6.87 9.079s-2.911 7.953-6.87 9.079zm75.949-15.709c0 8.662-7.037 15.709-15.688 15.709h-55.887c2.729-2.095 4.5-5.38 4.5-9.079s-1.771-6.984-4.5-9.079h71.576v2.449zm0-23.348H334.05v-193.13h157.052v193.13zm0-214.028H334.05v-.886c0-8.662 7.037-15.709 15.688-15.709h125.678c8.65 0 15.688 7.047 15.688 15.709v.886h-.002z"/><path d="M353.225 327.571H471.49c5.77 0 10.449-4.679 10.449-10.449v-76.151c0-5.77-4.679-10.449-10.449-10.449H353.225c-5.77 0-10.449 4.679-10.449 10.449v76.151c0 5.771 4.678 10.449 10.449 10.449zm10.449-76.151h97.368v55.253h-97.368V251.42zm-10.481 114.269h118.265c5.77 0 10.449-4.679 10.449-10.449s-4.679-10.449-10.449-10.449H353.193c-5.77 0-10.449 4.679-10.449 10.449s4.678 10.449 10.449 10.449zm0 33.025h118.265c5.77 0 10.449-4.679 10.449-10.449s-4.679-10.449-10.449-10.449H353.193c-5.77 0-10.449 4.679-10.449 10.449s4.678 10.449 10.449 10.449zM63.6 180.277h118.266c5.77 0 10.449-4.679 10.449-10.449V93.677c0-5.77-4.679-10.449-10.449-10.449H63.6c-5.77 0-10.449 4.679-10.449 10.449v76.151c0 5.771 4.679 10.449 10.449 10.449zm10.449-76.151h97.368v55.253H74.049v-55.253zm-10.472 114.26h226.395c5.77 0 10.449-4.679 10.449-10.449s-4.679-10.449-10.449-10.449H63.577c-5.77 0-10.449 4.679-10.449 10.449s4.678 10.449 10.449 10.449zm-.009 33.034h226.395c5.77 0 10.449-4.679 10.449-10.449s-4.679-10.449-10.449-10.449H63.568c-5.77 0-10.449 4.679-10.449 10.449s4.678 10.449 10.449 10.449zm236.844 22.583c0-5.77-4.679-10.449-10.449-10.449H63.568c-5.77 0-10.449 4.679-10.449 10.449s4.679 10.449 10.449 10.449h226.395c5.77 0 10.449-4.678 10.449-10.449z"/></svg>